<svg xmlns="http://www.w3.org/2000/svg" xmlns:xlink="http://www.w3.org/1999/xlink" width="73.63" height="73.63" viewBox="0 0 73.63 73.63"><defs><style>.a{fill:url(#a);}.b{fill:#fff;opacity:0.05;}.c{opacity:0.2;}.d{fill:url(#b);}.e{fill:url(#c);}.f{fill:url(#e);}.g{fill:url(#f);}.h{fill:url(#h);}.i{fill:url(#i);}.j{fill:url(#j);}.k{fill:url(#k);}.l{fill:url(#l);}.m{fill:url(#m);}.n{fill:url(#n);}.o{fill:url(#o);}.p{fill:url(#p);}.q{fill:url(#q);}.r{fill:url(#r);}.s{fill:url(#s);}.t{fill:url(#t);}.u{fill:url(#u);}.v{fill:url(#v);}.w{fill:url(#w);}.x{fill:url(#x);}.y{opacity:0.1;}.z{fill:url(#y);}.aa{fill:url(#z);}</style><linearGradient id="a" y1="0.5" x2="1" y2="0.5" gradientUnits="objectBoundingBox"><stop offset="0" stop-color="#3e057a"/><stop offset="0.998" stop-color="#57288e"/></linearGradient><linearGradient id="b" x1="-0.216" y1="0.246" x2="2.126" y2="1.395" gradientUnits="objectBoundingBox"><stop offset="0" stop-color="#6108bf"/><stop offset="0.998" stop-color="#7837ff"/></linearGradient><linearGradient id="c" x1="0.107" y1="0.612" x2="1.023" y2="0.612" gradientUnits="objectBoundingBox"><stop offset="0" stop-color="#6718ac"/><stop offset="0.998" stop-color="#833195"/></linearGradient><linearGradient id="e" x1="0.23" y1="-0.192" x2="2.591" y2="0.851" xlink:href="#b"/><linearGradient id="f" x1="0.51" y1="0.461" x2="1.414" y2="0.461" gradientUnits="objectBoundingBox"><stop offset="0" stop-color="#591594"/><stop offset="0.998" stop-color="#7d2e8c"/></linearGradient><linearGradient id="h" x1="-0.727" y1="0.617" x2="1.634" y2="1.66" xlink:href="#b"/><linearGradient id="i" x1="-1.323" y1="3.478" x2="-0.418" y2="3.478" gradientUnits="objectBoundingBox"><stop offset="0" stop-color="#3f0f69"/><stop offset="0.998" stop-color="#632570"/></linearGradient><linearGradient id="j" x1="-0.156" y1="0.504" x2="0.846" y2="0.504" xlink:href="#a"/><linearGradient id="k" x1="2.839" y1="0.462" x2="6.308" y2="1.525" xlink:href="#b"/><linearGradient id="l" x1="5.37" y1="2.522" x2="6.683" y2="2.522" xlink:href="#i"/><linearGradient id="m" x1="-1.191" y1="0.694" x2="-0.162" y2="0.694" xlink:href="#a"/><linearGradient id="n" x1="1.386" y1="-0.036" x2="4.1" y2="0.881" xlink:href="#b"/><linearGradient id="o" x1="3.232" y1="0.498" x2="4.242" y2="0.498" xlink:href="#i"/><linearGradient id="p" x1="1.018" y1="0.642" x2="0.486" y2="0.447" gradientUnits="objectBoundingBox"><stop offset="0" stop-color="#29034f"/><stop offset="0.472" stop-color="#522685"/><stop offset="1" stop-color="#522685"/></linearGradient><linearGradient id="q" x1="1.846" y1="0.089" x2="3.987" y2="1.172" xlink:href="#b"/><linearGradient id="r" x1="1.747" y1="0.058" x2="2.561" y2="0.058" xlink:href="#c"/><linearGradient id="s" x1="-0.348" y1="1.337" x2="0.825" y2="0.4" gradientUnits="objectBoundingBox"><stop offset="0" stop-color="#29034f"/><stop offset="0.998" stop-color="#522685"/></linearGradient><linearGradient id="t" x1="0.079" y1="0.071" x2="2.533" y2="1.216" xlink:href="#b"/><linearGradient id="u" x1="1.481" y1="-0.124" x2="2.448" y2="-0.124" xlink:href="#c"/><linearGradient id="v" x1="0.2" y1="1.559" x2="0.671" y2="0.208" xlink:href="#s"/><linearGradient id="w" x1="-3.306" y1="0.12" x2="-0.914" y2="1.27" xlink:href="#b"/><linearGradient id="x" x1="-4.255" y1="0.772" x2="-3.317" y2="0.772" xlink:href="#c"/><linearGradient id="y" x1="-3.13" y1="-0.501" x2="0.322" y2="0.604" xlink:href="#b"/><linearGradient id="z" x1="-2.976" y1="-0.747" x2="-1.652" y2="-0.747" xlink:href="#c"/></defs><g transform="translate(-308.14 -382.77)"><path class="a" d="M381.77,419.59a36.809,36.809,0,0,1-36.81,36.81c-1.15,0-2.28-.05-3.4-.16a36.811,36.811,0,0,1,1.21-73.4c.73-.05,1.46-.07,2.19-.07A36.812,36.812,0,0,1,381.77,419.59Z"/><path class="b" d="M381.77,419.59a36.809,36.809,0,0,1-36.81,36.81c-1.15,0-2.28-.05-3.4-.16a51,51,0,0,1,1.21-73.4c.73-.05,1.46-.07,2.19-.07A36.812,36.812,0,0,1,381.77,419.59Z"/><path class="c" d="M350.7,423.179l2.55-7.685a2.488,2.488,0,0,1,4.265-.818l4.969,5.914a2.488,2.488,0,0,1-1.334,4.022l-7.518,1.771A2.488,2.488,0,0,1,350.7,423.179Z"/><path class="d" d="M352.372,422.524l2.55-7.685a2.487,2.487,0,0,1,4.265-.817l4.969,5.913a2.488,2.488,0,0,1-1.333,4.022l-7.519,1.772A2.489,2.489,0,0,1,352.372,422.524Z"/><path class="e" d="M353.657,422.747l2.4-7.251a1.473,1.473,0,0,1,2.525-.484l4.689,5.58a1.473,1.473,0,0,1-.79,2.381l-7.093,1.671A1.472,1.472,0,0,1,353.657,422.747Z"/><path class="c" d="M363.276,420.592l-4.689-5.58a1.466,1.466,0,0,0-2.214-.03,1.358,1.358,0,0,1,1.426.421l4.351,5.119a1.336,1.336,0,0,1-.721,2.174l-6.548,1.5a1.359,1.359,0,0,1-1.043-.179,1.455,1.455,0,0,0,1.555.623l7.093-1.671A1.473,1.473,0,0,0,363.276,420.592Z"/><path class="a" d="M324.856,417.546l10.3-8.6c2.474-2.067,5.41-.891,5.215,2.089l-.773,11.83c-.186,2.838-3.1,5.275-5.388,4.5l-9.524-3.23C322.284,423.322,322.381,419.613,324.856,417.546Z"/><path class="f" d="M323.452,417.112l10.3-8.6c2.475-2.067,5.411-.891,5.216,2.089l-.774,11.83c-.185,2.838-3.1,5.275-5.387,4.5L323.28,423.7C320.881,422.888,320.978,419.179,323.452,417.112Z"/><path class="g" d="M324.555,418.383l9.715-8.114c1.465-1.224,3.2-.527,3.088,1.237l-.73,11.161c-.11,1.681-1.837,3.123-3.19,2.665l-8.985-3.048C323.033,421.8,323.09,419.607,324.555,418.383Z"/><path class="c" d="M336.628,422.667l.73-11.161A1.6,1.6,0,0,0,335.1,409.8a1.486,1.486,0,0,1,1.051,1.648l-.618,10.277c-.093,1.547-1.67,2.864-2.913,2.433l-8.255-2.867a1.382,1.382,0,0,1-.9-1.029,1.69,1.69,0,0,0,.981,2.022l8.985,3.048C334.791,425.79,336.518,424.348,336.628,422.667Z"/><path class="a" d="M316.73,396.662l3.957-3.3c.951-.795,2.08-.343,2,.8l-.3,4.546c-.072,1.091-1.193,2.028-2.071,1.73l-3.66-1.241C315.741,398.882,315.779,397.456,316.73,396.662Z"/><path class="h" d="M316.191,396.495l3.957-3.3c.951-.794,2.079-.342,2,.8l-.3,4.547c-.071,1.09-1.192,2.027-2.07,1.729l-3.661-1.241C315.2,398.715,315.24,397.29,316.191,396.495Z"/><path class="i" d="M316.615,396.984l3.733-3.119c.563-.47,1.231-.2,1.187.476l-.281,4.289c-.042.646-.706,1.2-1.225,1.024l-3.454-1.171C316.029,398.3,316.051,397.454,316.615,396.984Z"/><path class="c" d="M321.254,398.63l.281-4.289a.613.613,0,0,0-.866-.656.571.571,0,0,1,.4.633l-.238,3.95c-.036.6-.642,1.1-1.12.935l-3.172-1.1a.534.534,0,0,1-.345-.4.648.648,0,0,0,.377.777l3.454,1.171C320.548,399.831,321.212,399.276,321.254,398.63Z"/><path class="j" d="M309.274,428.487l1.4-4.028c.337-.968,1.213-.807,1.557.287l1.368,4.341c.328,1.041-.069,2.183-.732,2.107l-2.766-.312C309.4,430.8,308.938,429.455,309.274,428.487Z"/><path class="k" d="M308.872,428.456l1.4-4.028c.336-.968,1.212-.807,1.556.287l1.368,4.341c.328,1.041-.069,2.183-.732,2.108l-2.766-.313C309,430.772,308.536,429.424,308.872,428.456Z"/><path class="l" d="M309.31,428.816l1.32-3.8c.2-.573.718-.478.922.17l1.289,4.1c.2.617-.04,1.292-.433,1.248l-2.609-.295C309.386,430.187,309.111,429.389,309.31,428.816Z"/><path class="c" d="M312.841,429.281l-1.289-4.1c-.166-.527-.538-.681-.779-.414.181.005.371.174.475.5l1.2,3.766c.181.567-.033,1.184-.4,1.139l-2.407-.3a.519.519,0,0,1-.356-.291c.083.338.271.615.508.642l2.609.295C312.8,430.573,313.036,429.9,312.841,429.281Z"/><path class="m" d="M325.987,449.551,324.172,441c-.436-2.054.841-2.928,2.269-1.554l5.668,5.456c1.359,1.309,1.874,3.731.949,4.472l-3.852,3.09C328.235,453.247,326.423,451.605,325.987,449.551Z"/><path class="n" d="M325.2,450.494l-1.815-8.546c-.436-2.054.841-2.929,2.269-1.554l5.668,5.456c1.36,1.309,1.874,3.73.95,4.472l-3.853,3.09C327.451,454.191,325.64,452.548,325.2,450.494Z"/><path class="o" d="M326.093,450.523l-1.712-8.063c-.258-1.216.5-1.734,1.343-.92l5.348,5.147c.805.775,1.109,2.209.562,2.648L328,452.25C327.424,452.711,326.352,451.739,326.093,450.523Z"/><path class="c" d="M331.071,446.687l-5.347-5.147c-.688-.662-1.306-.434-1.378.325.239-.226.637-.193,1.064.215l4.937,4.715c.743.709,1.021,2.019.513,2.418l-3.372,2.649a.626.626,0,0,1-.722-.021c.41.457.9.674,1.233.409l3.635-2.915C332.181,448.9,331.877,447.462,331.071,446.687Z"/><path class="p" d="M343.124,390.38l8.821-4.936c2.12-1.187,4.13.093,3.571,2.273l-2.218,8.652c-.532,2.076-3.032,3.474-4.616,2.583l-6.6-3.717C340.416,394.3,341,391.566,343.124,390.38Z"/><path class="q" d="M341.4,389.724l8.821-4.936c2.12-1.186,4.13.093,3.571,2.273l-2.218,8.653c-.532,2.075-3.032,3.474-4.616,2.582l-6.6-3.716C338.7,393.643,339.284,390.911,341.4,389.724Z"/><path class="r" d="M342.044,390.819l8.323-4.657c1.255-.7,2.445.055,2.114,1.346l-2.093,8.163c-.315,1.229-1.794,2.057-2.732,1.529l-6.23-3.506C340.441,393.139,340.789,391.521,342.044,390.819Z"/><path class="c" d="M350.388,395.671l2.093-8.163a1.2,1.2,0,0,0-1.431-1.578,1.121,1.121,0,0,1,.549,1.367l-1.887,7.524a1.918,1.918,0,0,1-2.5,1.4l-5.714-3.271a1.044,1.044,0,0,1-.521-.887,1.274,1.274,0,0,0,.445,1.634l6.23,3.506C348.594,397.728,350.073,396.9,350.388,395.671Z"/><path class="s" d="M359.745,441.487l4.816-2.871a1.722,1.722,0,0,1,2.6,1.5l-.075,5.348a1.723,1.723,0,0,1-2.52,1.5l-4.74-2.477A1.723,1.723,0,0,1,359.745,441.487Z"/><path class="t" d="M360.919,441.9l4.816-2.872a1.723,1.723,0,0,1,2.6,1.5l-.075,5.348a1.722,1.722,0,0,1-2.52,1.5L361,444.909A1.723,1.723,0,0,1,360.919,441.9Z"/><path class="u" d="M361.491,442.6l4.543-2.709a1.02,1.02,0,0,1,1.542.89l-.07,5.046a1.02,1.02,0,0,1-1.492.889l-4.473-2.336A1.02,1.02,0,0,1,361.491,442.6Z"/><path class="c" d="M367.506,445.828l.07-5.046a1.015,1.015,0,0,0-1.146-1.018.938.938,0,0,1,.556.866l-.038,4.651a.926.926,0,0,1-1.363.813l-4.11-2.178a.939.939,0,0,1-.466-.566,1.009,1.009,0,0,0,.532,1.031l4.473,2.336A1.02,1.02,0,0,0,367.506,445.828Z"/><path class="v" d="M372,410.6l3.554-2.825a1.394,1.394,0,0,1,2.252.925l.519,4.3a1.4,1.4,0,0,1-1.86,1.478L372.4,413A1.4,1.4,0,0,1,372,410.6Z"/><path class="w" d="M372.991,410.808l3.554-2.826a1.394,1.394,0,0,1,2.252.925l.519,4.3a1.4,1.4,0,0,1-1.86,1.479l-4.072-1.475A1.394,1.394,0,0,1,372.991,410.808Z"/><path class="x" d="M373.526,411.306l3.352-2.665a.826.826,0,0,1,1.334.547l.489,4.056a.826.826,0,0,1-1.1.876l-3.841-1.391A.826.826,0,0,1,373.526,411.306Z"/><path class="c" d="M378.7,413.244l-.489-4.056a.822.822,0,0,0-1.03-.693.76.76,0,0,1,.54.635l.472,3.736a.749.749,0,0,1-1.005.8l-3.534-1.3a.756.756,0,0,1-.435-.4.816.816,0,0,0,.539.77l3.841,1.391A.826.826,0,0,0,378.7,413.244Z"/><path class="y" d="M375.4,428.421l2.746-2.266c.66-.545,1.3.136,1.131,1.209l-.658,4.261c-.158,1.022-.936,1.664-1.437,1.185l-2.088-1.994A1.874,1.874,0,0,1,375.4,428.421Z"/><path class="z" d="M375.939,428.757l2.746-2.266c.66-.545,1.3.136,1.131,1.209l-.658,4.261c-.158,1.022-.936,1.664-1.437,1.186l-2.088-1.995A1.874,1.874,0,0,1,375.939,428.757Z"/><path class="aa" d="M376.145,429.316l2.591-2.138c.39-.322.767.081.669.716l-.621,4.02c-.093.605-.554.985-.851.7l-1.97-1.882A1.11,1.11,0,0,1,376.145,429.316Z"/><path class="c" d="M378.784,431.914l.621-4.02c.08-.517-.156-.872-.456-.816a.755.755,0,0,1,.178.692l-.559,3.706c-.084.558-.505.9-.777.641l-1.807-1.753a.67.67,0,0,1-.168-.453.906.906,0,0,0,.147.823l1.97,1.882C378.23,432.9,378.691,432.519,378.784,431.914Z"/></g></svg>