<svg xmlns="http://www.w3.org/2000/svg" xmlns:xlink="http://www.w3.org/1999/xlink" width="161.772" height="199.429" viewBox="0 0 161.772 199.429"><defs><style>.a{fill:#f48a33;}.b{fill:#7f6fec;}.c{fill:#db772c;}.d{clip-path:url(#a);}.e{fill:#3d3984;}.f,.n,.q{fill:#fff;}.g{fill:#191919;}.h{fill:#ff4800;}.i{fill:#d87830;}.j{fill:#f4c74c;}.k{fill:#e0e0e0;isolation:isolate;}.k,.q{opacity:0.2;}.l{fill:#2d2d70;}.m{fill:#ededee;}.n,.p{opacity:0.1;}.o,.p{fill:none;stroke:#fff;stroke-miterlimit:10;}.o{stroke-width:0.5px;opacity:0.5;}.p{stroke-linecap:round;stroke-width:5px;}</style><clipPath id="a"><path class="a" d="M363.456,717.615a14.61,14.61,0,0,1-1.824-4.492,13.892,13.892,0,0,0,3.029,3.447,14.435,14.435,0,0,0,3.789,2.186,19.3,19.3,0,0,0,4.147,1.089,17.146,17.146,0,0,0,4.049.163,3.264,3.264,0,1,1-.424,6.4l-.174-.047a22.94,22.94,0,0,1-5.023-2,23.3,23.3,0,0,1-4.273-2.911,16.73,16.73,0,0,1-3.3-3.841"/></clipPath></defs><g transform="translate(-355.173 -554.868)"><path class="a" d="M430.726,692.637s13.41,6.643,9.05,26.959c0,0-1.563,4.438-3.614.181s1.36-9.351-10.514-18.877"/><path class="b" d="M442.166,667.835a14.65,14.65,0,0,1,2.188,3.543,28.243,28.243,0,0,1-.116,3.429l-3.043-3.224s-8.61-5.969-17.058-3.826c0,0-.276-2.338.539-3.34C434.649,661.248,439.743,665.4,442.166,667.835Z"/><path class="c" d="M376.223,726.415a3.263,3.263,0,1,0,.425-6.4,17.108,17.108,0,0,1-4.05-.163,19.4,19.4,0,0,1-4.148-1.088,14.416,14.416,0,0,1-3.791-2.185,13.875,13.875,0,0,1-3.027-3.445,14.709,14.709,0,0,0,1.822,4.489,16.8,16.8,0,0,0,3.3,3.844,24.182,24.182,0,0,0,9.3,4.908Z"/><path class="a" d="M363.456,717.615a14.61,14.61,0,0,1-1.824-4.492,13.892,13.892,0,0,0,3.029,3.447,14.435,14.435,0,0,0,3.789,2.186,19.3,19.3,0,0,0,4.147,1.089,17.146,17.146,0,0,0,4.049.163,3.264,3.264,0,1,1-.424,6.4l-.174-.047a22.94,22.94,0,0,1-5.023-2,23.3,23.3,0,0,1-4.273-2.911,16.73,16.73,0,0,1-3.3-3.841"/><g class="d"><path class="e" d="M364.368,710.883a7.051,7.051,0,0,0-9.043,4.2h0a7.051,7.051,0,1,0,9.043-4.2"/></g><path class="a" d="M444.048,654.995c-1.19,3.35.27-1.16-2.91,21.76.05,2.03-1.03,10.44-2.82,17.67a36.816,36.816,0,0,1-3.27,9.19c-9.13,15.23-16.49,16.25-26.55,21.96-.81.46-1.613,1-2.48,1.47-13.082,7.159-16.45,9.605-16.45,9.605-1.46,6.69.91,11.695,1.471,14.516.834,4.2-2.931,3.126-3.3,2.646-2.63-3.451-16.47-17.577-10.59-33.967,1.36-6.9,6.77-12.77,11.91-17.49,3.65-3.37,7.17-6.16,9.02-8.34q1.59-1.875,2.98-3.62c13.63-17.02,13.86-24.81,13.86-24.81l2.225-2.832,10.545-10.108,16.64-6.29S445.238,651.645,444.048,654.995Z"/><path class="a" d="M398.658,730.791a3.347,3.347,0,0,1-1.814-.774,15.106,15.106,0,0,0-5.85,3.534,43.331,43.331,0,0,0,12.028,8.292c.406.15,3.638,1.491,1.657-2.731C403.917,737.489,399.925,734.656,398.658,730.791Z"/><path class="e" d="M421.947,617.224c-10.081.995-9.6,9.405-9.6,9.405"/><path class="f" d="M444.866,617.948c-3-3.509-7.5-4.595-10.036-2.42s-2.161,6.785.842,10.291,7.494,4.587,10.035,2.416,2.159-6.778-.841-10.287"/><path class="e" d="M415.175,638.631a74.926,74.926,0,0,0-.427,10.964c3.428,7.921,21.846,4.108,24.666,1.908,1.558-18.412-12.142-23.006-18.242-25.711s-8.734-.081-8.606.867c.106.742-1.918,8.308-2.794,11.542a.956.956,0,0,0,1.1,1.188Z"/><path class="a" d="M427.77,726.515"/><path class="a" d="M412.51,673.342c7.054-13.2-1.422-25.758-5.508-29.072s-8.573-4.974,8.827-11.914c11.475-4.575,37.807-13.717,58.117-20.829,8.511-2.979,13.822-2.665,18.684-4.445,2.543-1.1,7.572-3.8,9.961-2.587,4.7,2.385,6.086,10.225.473,17.374-8.463,10.781-34.079,34-69.414,28.481"/><path class="f" d="M431.386,625.515c-4.423-3.52-10.079-3.778-12.623-.576s-1.023,8.65,3.4,12.168,10.078,3.778,12.623.578,1.022-8.648-3.4-12.17"/><path class="e" d="M399.894,643.386a74.787,74.787,0,0,1,6.571,8.788c1.664,8.467-15.662,15.775-19.236,15.559-11.728-14.285-3.048-25.836.443-31.523s7.152-5.018,7.583-4.164c.335.668,6.291,5.755,8.847,7.921a.957.957,0,0,1-.231,1.6Z"/><path class="g" d="M430.361,626.012c-1.577-1.458-3.834-1.567-5.046-.258s-.921,3.551.656,5.009,3.833,1.567,5.046.258.92-3.555-.655-5.009"/><path class="e" d="M436.107,610.157c-8.242-.762-9.163,6.057-9.163,6.057"/><path class="e" d="M472.8,612.1s17.185-7.14,29.121-7.9c3.605,6.3-5.089,12.453-5.089,12.453C477.445,625.327,472.8,612.1,472.8,612.1"/><path class="b" d="M442.256,675.646c-16.207,2.621-28.12-11.092-28.12-11.092-.35-1.245.95-3.383.95-3.383,14.333,11.519,24.134,9.646,24.134,9.646Z"/><path class="e" d="M426.442,649.123s9.244,9.792,13.926,9.455,3.668-7.2,3.668-7.2Z"/><path class="h" d="M430.6,653.931s1.882,4.948-4.036,10.687c-3.076,2.981,2.322,10.336,3.424,7.605s6.763-8.374,7.177-12.938-6.565-5.354-6.565-5.354"/><path class="e" d="M415.211,690.924"/><path class="f" d="M429.652,624.754a1.557,1.557,0,0,0-1.948-1.021h0a1.557,1.557,0,1,0,1.951,1.021"/><path class="g" d="M441.84,616.689a2.354,2.354,0,1,0,.47,3.586,2.578,2.578,0,0,0-.47-3.586"/><path class="f" d="M441.333,615.789a1.116,1.116,0,0,0-1.4-.732h0a1.115,1.115,0,1,0,1.4.731"/><path class="i" d="M496.235,616.219a15.272,15.272,0,0,1-1.087,5.436,24.433,24.433,0,0,1-2.437,4.888,37.583,37.583,0,0,1-7.219,8.19c-1.3,1.3-2.864,2.311-4.271,3.5l-4.576,3.171c-1.6.95-3.144,2.015-4.76,2.969-1.608.971-3.256,1.873-4.856,2.916,1.811-.557,3.57-1.26,5.37-1.893,1.759-.726,3.456-1.587,5.17-2.426,1.7-.876,3.289-1.95,4.932-2.935a57.567,57.567,0,0,0,4.544-3.56,30.913,30.913,0,0,0,7.244-9.035c1.783-3.421,2.808-7.475,1.946-11.221"/><path class="e" d="M389.058,702.355c3.65-3.37,7.17-6.16,9.02-8.34q1.59-1.875,2.98-3.62C401.878,692.095,406.688,703.545,389.058,702.355Z"/><path class="f" d="M438.318,694.425a36.816,36.816,0,0,1-3.27,9.19c-9.13,15.23-16.49,16.25-26.55,21.96-.81.46-1.64.95-2.48,1.47a17.85,17.85,0,0,1,4.32-3.6c6.44-3.7,13.32-5.48,13.72-15.36s8.94-17.05,14.06-13.8A1.434,1.434,0,0,1,438.318,694.425Z"/><path class="e" d="M440.7,677.448a5.573,5.573,0,0,1-3.005-2.463h0a7.294,7.294,0,0,1-1.124-4.113,4.6,4.6,0,0,1,1.415-3.352c1.768-1.551,4.519-.728,6.129,1.835a7.286,7.286,0,0,1,1.125,4.112,4.6,4.6,0,0,1-1.415,3.352,3.179,3.179,0,0,1-1.114.642A3.357,3.357,0,0,1,440.7,677.448Z"/><path class="j" d="M438.371,667.4c1.618-1.5,4.2-.634,5.758,1.955s1.52,5.9-.1,7.4-4.194.628-5.759-1.957S436.754,668.9,438.371,667.4Z"/><path class="k" d="M438.272,674.8a5.738,5.738,0,0,0,2.717,2.458,9.312,9.312,0,0,1-1.48-2.151c-1.977-3.854-1.066-7.168,1.064-8.424a2.683,2.683,0,0,0-2.2.714C436.752,668.9,436.711,672.218,438.272,674.8Z"/><path class="l" d="M443.005,677.364a2.73,2.73,0,0,0,1.026-.608,4.51,4.51,0,0,0,1.24-3.3,7.834,7.834,0,0,0-1.147-4.1c-1.559-2.58-4.143-3.456-5.756-1.955a4.5,4.5,0,0,0-1.241,3.3,7.856,7.856,0,0,0,1.147,4.1h0a5.617,5.617,0,0,0,2.859,2.51A2.948,2.948,0,0,0,443.005,677.364Zm-4.334-9.471a2.406,2.406,0,0,1,.913-.543c1.382-.445,3.108.424,4.237,2.29a7.018,7.018,0,0,1,1.022,3.673,4.027,4.027,0,0,1-1.109,2.947,2.477,2.477,0,0,1-2.594.5,5.035,5.035,0,0,1-2.556-2.245h0a7.018,7.018,0,0,1-1.022-3.673,4.023,4.023,0,0,1,1.109-2.948Z"/><path class="m" d="M438.756,671.853a2.324,2.324,0,0,1-.048-.31,1.372,1.372,0,0,1,.5-1.394.819.819,0,0,1,.873.014,2.127,2.127,0,0,1,.59.5c.03.033.04.033.042-.016a2.436,2.436,0,0,1,.058-.407.961.961,0,0,1,.79-.864,1.189,1.189,0,0,1,.994.438,2.527,2.527,0,0,1,.474.717,2.924,2.924,0,0,1,.272,1.158,3.917,3.917,0,0,1-.15,1.1,11.8,11.8,0,0,1-.395,1.2c-.137.372-.279.738-.419,1.107-.039.1-.1.126-.2.067q-.238-.15-.479-.309c-.341-.222-.684-.437-1.025-.667a6.491,6.491,0,0,1-1.109-.9,2.9,2.9,0,0,1-.672-1.11A2.2,2.2,0,0,1,438.756,671.853Z"/><path class="a" d="M418.225,700.3S432.7,707.47,428,729.406c0,0-1.688,4.791-3.9.2s1.468-10.1-11.352-20.381"/><path class="n" d="M515.921,618.084c.831,35.779-38.655,57.827-83.041,58.858s-76.862-19.348-77.693-55.127,34.478-65.618,78.863-66.649S515.091,582.3,515.921,618.084Z"/><path class="o" d="M516.681,618.066c.83,35.779-38.656,57.828-83.041,58.858s-76.863-19.348-77.694-55.127,34.478-65.618,78.864-66.648S515.85,582.287,516.681,618.066Z"/><path class="p" d="M412.247,567.731s-28.267,4.629-38.175,27.783"/><path class="q" d="M465.065,559.165c.907.669,1.8,1.385,2.682,2.131,21.781,9.839,33.216,31.472,33.812,57.121.6,25.949-15.927,44.578-40.953,53.227a79.469,79.469,0,0,1-12.971,4.239c38.356-4.852,69.787-25.855,69.046-57.817C516.049,590.882,494.735,568.094,465.065,559.165Z"/><path class="b" d="M408.46,673.4s23.147,2.6,36.07,2.434c0,0,1.467-.1.441,1.251-1.471,1.936-33.365,2.074-37.673-1.611C405.408,673.858,408.46,673.4,408.46,673.4Z"/></g></svg>