<svg xmlns="http://www.w3.org/2000/svg" xmlns:xlink="http://www.w3.org/1999/xlink" width="352" height="370.949" viewBox="0 0 352 370.949"><defs><style>.a{fill:url(#a);}.b{fill:#fff;opacity:0.02;}.c{opacity:0.1;}</style><linearGradient id="a" y1="0.5" x2="1" y2="0.5" gradientUnits="objectBoundingBox"><stop offset="0" stop-color="#3e057a"/><stop offset="0.998" stop-color="#57288e"/></linearGradient></defs><g transform="translate(-656.43 301.06)"><path class="a" d="M1008.43-125.06A176.023,176.023,0,0,1,850.4,50.03a177.8,177.8,0,0,1-17.97.91q-6.42,0-12.72-.46a174.592,174.592,0,0,1-52.19-11.9A176.064,176.064,0,0,1,656.43-125.06a176,176,0,0,1,176-176,175.725,175.725,0,0,1,141.75,71.67A175.164,175.164,0,0,1,1008.43-125.06Z"/><path class="a" d="M850.64,49.66l-.24.37-11.55,18.2a3.563,3.563,0,0,1-3.53,1.62c-5.72-.84-13.24-1.99-21.12-3.23-16.46-2.58-34.5-5.53-41.09-6.61a3.576,3.576,0,0,1-2.96-3.03l-2.63-18.4-.4-2.77a3.593,3.593,0,0,1,3.61-4.09,291.152,291.152,0,0,1,53.19,6.43c7.72,1.61,16,3.62,24.69,6.14A3.594,3.594,0,0,1,850.64,49.66Z"/><path class="b" d="M1008.43-125.06A176.023,176.023,0,0,1,850.4,50.03l-11.55,18.2a3.563,3.563,0,0,1-3.53,1.62c-5.72-.84-13.24-1.99-21.12-3.23l5.51-16.14,4.21-12.33v-.01S953.51-24.41,974.18-229.39A175.164,175.164,0,0,1,1008.43-125.06Z"/><path class="a" d="M939.09,25.18c-4.98,3.4-13.1,8.78-19.52,13.02-3.75,2.47-6.91,4.55-8.53,5.62a1.923,1.923,0,0,1-2.27-.12l-8.85-7.24a1.917,1.917,0,0,1-.06-2.92c1.56-1.39,4.23-3.66,7.9-6.42A174.732,174.732,0,0,1,935.07,10.3a1.916,1.916,0,0,1,2.74,1.38l2.08,11.58A1.929,1.929,0,0,1,939.09,25.18Z"/><path class="c" d="M919.57,38.2c-3.75,2.47-6.91,4.55-8.53,5.62a1.923,1.923,0,0,1-2.27-.12l-8.85-7.24a1.917,1.917,0,0,1-.06-2.92c1.56-1.39,4.23-3.66,7.9-6.42Z"/></g></svg>