<svg xmlns="http://www.w3.org/2000/svg" xmlns:xlink="http://www.w3.org/1999/xlink" width="1924" height="764.697" viewBox="0 0 1924 764.697"><defs><style>.a,.b{opacity:0.1;}.a{fill:url(#a);}.b{fill:url(#b);}</style><linearGradient id="a" x1="0.22" y1="0.545" x2="1.158" y2="0.545" gradientUnits="objectBoundingBox"><stop offset="0" stop-color="#6718ac"/><stop offset="0.998" stop-color="#833195"/></linearGradient><linearGradient id="b" x1="0.744" y1="0.59" x2="1.683" y2="0.59" xlink:href="#a"/></defs><g transform="translate(1.627 -320.696)"><path class="a" d="M1923.333,1079.333V323.5c-60.738,8.644-124.782,36.135-158.649,107.081-76.26,159.751-40.759,249.666-274.9,276.184s-142.524,342.406-349.117,308.411-358.608-29.44-418.778,21.305l102.049,42.851Z" transform="translate(-0.96 6.06)"/><path class="b" d="M1074.3,1078.667l125.561-51.185c-60.17-50.745-212.184-55.3-418.778-21.305S666.1,724.284,431.96,697.766s-198.637-116.433-274.9-276.184C123.367,350.994,59.8,323.425-.667,314.636v764.031Z" transform="translate(-0.96 6.06)"/></g></svg>