<svg xmlns="http://www.w3.org/2000/svg" width="239.78" height="347.41" viewBox="0 0 239.78 347.41"><defs><style>.a{fill:#393848;}.b{fill:#805eea;}.c,.i,.k,.r,.x,.y{fill:#fff;}.aa,.c,.k,.m{opacity:0.1;}.d{fill:#655dd1;}.e{fill:#f1821e;}.f,.t{fill:#4a42b3;}.g{fill:#ddd;}.h,.o,.s,.t,.y,.z{opacity:0.5;}.j{fill:#9c9c9b;}.k,.m,.o,.s,.t{isolation:isolate;}.l{fill:#28244e;}.m{fill:gray;}.aa,.n,.s,.z{fill:none;stroke-miterlimit:10;}.aa,.n,.z{stroke:#fff;}.p{fill:#333;}.q{fill:#7069d1;}.r{opacity:0.2;}.s{stroke:#4a42b3;stroke-width:0.25px;}.u{fill:#ededee;}.v{fill:#f4c74c;}.w{fill:#6d66d3;}.x{opacity:0.3;}.z{stroke-width:0.5px;}.aa{stroke-linecap:round;stroke-width:5px;}</style></defs><g transform="translate(-1422.42 -341.16)"><path class="a" d="M1503.26,670.44v-.01a3.172,3.172,0,1,0,0,.01Z"/><circle class="b" cx="5.169" cy="5.169" r="5.169" transform="translate(1446.037 648.094)"/><path class="a" d="M1459.271,650.124a9.278,9.278,0,0,0-4.41-4.72,8.661,8.661,0,0,0-8.5,15.03,8.16,8.16,0,0,0,1.19.68,8.66,8.66,0,0,0,11.51-4.2A9.032,9.032,0,0,0,1459.271,650.124Zm-10.91,1.82v-.01a3.173,3.173,0,1,0,0,.01Z"/><path class="c" d="M1453.831,644.964c1.23,2.08,6.49,10.04-3.28,16.93.2.02.41.03.61.03h.04c.23,0,.45-.01.68-.03h.04a5.992,5.992,0,0,0,.85-.12.427.427,0,0,0,.11-.02c.12-.02.23-.05.35-.08.22-.05.43-.11.64-.17.27-.1.54-.2.8-.31.14-.07.28-.13.42-.2s.27-.14.4-.22a8.669,8.669,0,0,0,4.34-7.41v-.1c0-.25-.01-.5-.03-.76a8.993,8.993,0,0,0-.27-1.48,3.4,3.4,0,0,0-.09-.34,8.5,8.5,0,0,0-1.5-2.8c0-.01,0-.02-.01-.02a1.932,1.932,0,0,0-.27-.3,1.391,1.391,0,0,0-.29-.31,6.794,6.794,0,0,0-.78-.73l-.21-.15c-.13-.1-.25-.19-.37-.28Z"/><path class="d" d="M1450.59,656.331a3.124,3.124,0,0,0,3.461-1.737,3.237,3.237,0,0,0,.231-.711A5.139,5.139,0,0,1,1450.59,656.331Z"/><path d="M1498.223,373.664c.266-2.989-1.359-1.606-3.064,7.566.908-1.275,1.822-2.541,2.714-3.827C1498.032,375.76,1498.154,374.479,1498.223,373.664Z"/><circle class="e" cx="0.878" cy="0.878" r="0.878" transform="translate(1497.008 368.925)"/><path d="M1494.656,384.157c-2.445,18.241-5.456,41.323-5.93,49.422a10.926,10.926,0,0,0,6.6,10.271l.222-4.56s-4.043-.921-3.2-8.959c1.763-16.662,4.013-37.719,5.273-50.377-1.128,2.55-2.275,5.073-3.416,7.584-2.405,18.173-4.655,38.46-5.48,46.042"/><path class="f" d="M1504.053,421.158s-7.654,2.311-9.17,4.747c-.714,2.516-2.956,18.19-2.894,29.334.947,3.342,7.735,9.813,7.735,9.813Z"/><path class="b" d="M1611.3,402.619c11.345,4.844,16.656,8.638,14.991,23.42s-9.12,75.834-10.38,85.42-11.135,19.008-26.14,18.188"/><path class="g" d="M1534.038,569.212l-11.656-5.791c-14.371-10.339-57.339-24.047-88.876,16.192l9.129,6.26a52.792,52.792,0,0,1,73.7-12.255l9.633,6.887Z"/><g class="h"><path class="i" d="M1472.655,564.193a49.5,49.5,0,0,0-31.5,20.1l-7.363-5.038c-.1.121-.193.236-.288.358l9.129,6.26a52.927,52.927,0,0,1,44.417-22.113A47.358,47.358,0,0,0,1472.655,564.193Z"/></g><rect class="j" width="13.887" height="4.166" transform="matrix(0.368, -0.93, 0.93, 0.368, 1494.691, 570.153)"/><path class="b" d="M1615.63,518.8c-4.331,7.2-15.435,11.241-24.022,12.911a39.667,39.667,0,0,1-9.05.882l-.371-.013c-1.423-.053-2.835-.114-4.247-.176-28.714-1.268-54.5-4.384-82.454-11.785-6.544-1.739-10.747-7.034-10.535-13.865-.2-40.246,4.936-84.952,13.087-111.112,1.305-6.705,6.993-10.741,13.759-10.668,33.732.335,60.206,4.355,88.559,12.175.03,0,.048.016.078.019,6.612,1.848,27.984,10.415,27.612,22.4C1627.828,447.725,1620.4,512.3,1615.63,518.8Z"/><path class="i" d="M1498.209,437.009c-2.293,17.731,5.7,34.023,18.666,40.526a27.973,27.973,0,0,0,8.86,2.741c17.983,2.406,33.7-12.188,36.48-33.675,1.553-11.557-.282-24.033-6.941-32.606h0A29.775,29.775,0,0,0,1535.8,402.45C1517.818,400.045,1500.988,415.516,1498.209,437.009Z"/><ellipse class="e" cx="25.01" cy="18.775" rx="25.01" ry="18.775" transform="translate(1499.618 460.224) rotate(-83.572)"/><circle class="b" cx="5.169" cy="5.169" r="5.169" transform="translate(1500.936 671.589)"/><path class="a" d="M1514.17,673.62a9.274,9.274,0,0,0-4.41-4.72,8.661,8.661,0,0,0-8.5,15.03,8.16,8.16,0,0,0,1.19.68,8.66,8.66,0,0,0,11.51-4.2A9.031,9.031,0,0,0,1514.17,673.62Zm-10.91,1.82v-.01a3.172,3.172,0,1,0,0,.01Z"/><path class="i" d="M1507.471,493.409s13.273,4.292,20.873,5.289c8.591,1.13,21.342.258,21.342.258,1.586-.206,2.592,2.072,1.557,3.335-3.56,4.347-11.78,11.942-24.812,10.233s-19.011-11.171-21.327-16.292C1504.433,494.741,1505.94,492.817,1507.471,493.409Z"/><path class="b" d="M1486.833,651.823c1.151.495,2.278.937,3.39,1.336,11.913,4.249,21.975,3.05,31.081-9.351,18.7-25.45,23.92-45.2,28.75-59.193.105-.3.2-.591.3-.881a29.292,29.292,0,0,0,1.533-6.156,22.371,22.371,0,0,0-5.249-17.735c-6.241-7.522-17.345-13.027-30.917-16.329-15.667-3.814-23.427,12.637-27.92,23.968-11.843,25.082-20.924,36.388-25.29,47.4-2.481,6.257-3.046,12.483-1.174,17.822v.01l.355.937a19.517,19.517,0,0,0,8.373,9.3,154.321,154.321,0,0,0,16,8.543Z"/><path class="a" d="M1559.9,400.643s-13.461-10.8-38.482-4.741C1521.425,395.9,1543.916,373.54,1559.9,400.643Z"/><path class="k" d="M1615.63,518.8c-4.331,7.2-15.435,11.241-24.022,12.911-3.606.29-6.9.545-9.421.869a16.434,16.434,0,0,0-4.492.984c.085-.383.17-.776.245-1.16a1333.76,1333.76,0,0,0,22.494-135.236c6.612,1.848,27.984,10.415,27.612,22.4C1627.828,447.725,1620.4,512.3,1615.63,518.8Z"/><ellipse class="l" cx="14.627" cy="10.981" rx="14.627" ry="10.981" transform="translate(1504.553 450.323) rotate(-83.572)"/><ellipse class="i" cx="6.147" cy="4.614" rx="6.147" ry="4.614" transform="translate(1523.795 431.669) rotate(-83.571)"/><ellipse class="i" cx="1.582" cy="1.188" rx="1.582" ry="1.188" transform="matrix(0.112, -0.994, 0.994, 0.112, 1508.446, 450.205)"/><path class="m" d="M1534.171,400.727A39.812,39.812,0,0,0,1505,416.941c-12.881,17.422-9.769,41.572,6.959,53.939a36.248,36.248,0,0,0,9.338,4.992C1483.414,431.146,1529.223,403.358,1534.171,400.727Z"/><path class="n" d="M1480.1,450.457"/><g class="h"><path class="f" d="M1607.628,401.108a2.442,2.442,0,0,0,.279.269c-1.075,6.017-8.757,65.481-8.87,68.831.381,2.126,3.355,12.643,4.278,14.446-.042.225-.076.453-.1.681a136.265,136.265,0,0,1-4.508-14.972l0-.07c.026-1.364,2.228-19.114,4.287-35.122C1603.668,429.918,1606.912,404.807,1607.628,401.108Z"/></g><path class="k" d="M1551.89,577.578c-.027.148-.064.295-.1.442-.524,2.013-1.1,4.222-1.735,6.595-4.83,13.99-10.05,33.743-28.75,59.193-9.106,12.4-19.168,13.6-31.081,9.351,32.335-21.306,54.166-61.032,56.418-93.316A22.371,22.371,0,0,1,1551.89,577.578Z"/><g class="o"><path class="f" d="M1486.066,651.493c-4.337-5.793,1.1-15.838,6.827-26.463,3.683-6.814,7.493-13.865,8.99-20.225.883-3.744-2.164-7.094-5.32-8.977-4.153-2.491-10.418-3.593-14.329-.127-6.038,5.325-12.492,16.632-19.193,33.6-.227.568-.384.973-.48,1.193a12.157,12.157,0,0,0-.867,3.162l-.355-.937v-.01a12.6,12.6,0,0,1,.761-2.419c.1-.21.252-.615.468-1.174,6.73-17.043,13.241-28.4,19.326-33.794,4.111-3.624,10.616-2.5,14.929.076,4.21,2.518,6.336,6.174,5.548,9.526-1.513,6.419-5.336,13.5-9.043,20.35-5.846,10.834-11.37,21.06-6.406,26.472l-.09.08Z"/></g><path class="a" d="M1526.255,548.63c3.1-4.769.843-5.785-1.148-5.4-1.762.338-5.057.588-5.847.848.072-.331-.051-.621-.289-.684a.964.964,0,0,0-.8.178.88.88,0,0,0-.517-.6c-.224-.1-.464.054-.675.37-.453-.659-2.689-2.919-3.855-4.2-1.319-1.45-3.644-2.2-4.688,3.578-3.115,5.445-.625,5.694,1.685,5.221,1.44-.3,3.531-.658,4.9-.887l-.007.017c.115-.023.219-.046.318-.069l.467-.077c-.038.341.033.574.24.615a.85.85,0,0,0,.707-.185l.035.015a.767.767,0,0,0,.435.549c.177.082.37-.042.554-.295.727.98,2.434,3.26,3.6,4.577C1522.878,553.907,1524.949,554.441,1526.255,548.63Z"/><path class="p" d="M1508.36,547.425a1.865,1.865,0,0,0,.657.074,19.333,19.333,0,0,0,3.03-.349c1.017-.169,2.036-.366,3.056-.575l.572-.121a.651.651,0,0,0,.432-.446l.651-1.946-.755,1.822a.5.5,0,0,1-.345.318q-1.369.227-2.735.432c-1.124.167-2.25.335-3.367.437a1.555,1.555,0,0,1-.968-.076.993.993,0,0,1-.355-.821,1.783,1.783,0,0,1,.138-.723,2.883,2.883,0,0,1,.908-1.247,1.752,1.752,0,0,0-1.131,1.01,2.347,2.347,0,0,0-.152,1.9A.653.653,0,0,0,1508.36,547.425Z"/><path class="p" d="M1517.986,544.069a3.764,3.764,0,0,1-.983,2.68A6.956,6.956,0,0,0,1517.986,544.069Z"/><path class="p" d="M1513.492,540.373c-1.2-.883-1.757-1.4-2.36-1.328-.71.086-1.37.731-1.031,5.128a1.792,1.792,0,0,1-.154,1.071s.462-.126.355-2.069.115-3.282.665-3.57S1513.492,540.373,1513.492,540.373Z"/><path class="p" d="M1521.412,551.272c1.2.881,1.757,1.4,2.36,1.327.711-.086,1.371-.731,1.032-5.127a1.8,1.8,0,0,1,.153-1.071s-.461.126-.354,2.068-.116,3.283-.665,3.57S1521.412,551.272,1521.412,551.272Z"/><path class="p" d="M1526.079,546.565c.556-.947.769-1.65.554-1.977-.312-.476-7.156.045-7.156.045,1.561-.28,6.853-.911,7.337-.6s.715,1.143-1.214,3.286Z"/><path class="q" d="M1447.26,588.56l-5.5,13.18-1.91-1.28-4.57-3.05,4.39-7.95-8.14-4.91-2.45,5.42-6.66-2.38,6.95-11.39,11.86,8.19Z"/><path class="r" d="M1447.26,588.56l-5.5,13.18-1.91-1.28,4.4-11.49-3.02-4.58Z"/><line class="s" y1="10.654" x2="4.222" transform="translate(1495.031 578.991)"/><path class="s" d="M1533.537,562.677c-3.846,11.865-8.322,26.936-9.507,32.4s2.955,7.19,1.666,11.049"/><path d="M1639.537,389.913"/><path class="t" d="M1616.225,486.142l4.236-4.2-.082.632-4.267,4.241"/><path class="t" d="M1603.777,485.474l11.871,1.49-.553.319-11.922-1.488"/><ellipse class="a" cx="12.531" cy="9.004" rx="12.531" ry="9.004" transform="translate(1490.295 575.435) rotate(-67.503)"/><ellipse class="e" cx="10.96" cy="7.624" rx="10.96" ry="7.624" transform="translate(1491.166 574.083) rotate(-67.503)"/><path class="u" d="M1503.6,566.322a7.48,7.48,0,0,1-1.263,2.1,13.642,13.642,0,0,1-1.834,1.742c-.55.451-1.1.874-1.652,1.315q-.385.309-.772.608c-.128.116-.245.075-.26-.093v-.015c-.1-.668-.211-1.333-.31-2.007-.1-.71-.207-1.42-.254-2.185a9.017,9.017,0,0,1,.078-2.024,7.63,7.63,0,0,1,.7-2.154,6.263,6.263,0,0,1,.873-1.362,1.969,1.969,0,0,1,1.547-.891c.559.048.9.63.905,1.531a5.149,5.149,0,0,1-.032.744c-.01.091.005.089.057.024a4.564,4.564,0,0,1,.982-.976c.487-.343.945-.379,1.261-.1a2.571,2.571,0,0,1,.355,2.528c-.04.19-.091.382-.152.574A6.025,6.025,0,0,1,1503.6,566.322Z"/><path class="m" d="M1502.146,578.047a8.509,8.509,0,0,1-2.756-.194c-4.13-1.513-5.679-7.36-3.461-13.061.057-.145.115-.289.176-.432a13.351,13.351,0,0,1,6.286-7.012C1500.866,557.4,1489.818,572.91,1502.146,578.047Z"/><g class="h"><ellipse class="u" cx="1.26" cy="0.755" rx="1.26" ry="0.755" transform="matrix(0.562, -0.827, 0.827, 0.562, 1504.347, 562.098)"/></g><path class="v" d="M1616.991,437.94a.807.807,0,0,1,.888-.637c5.863,1.076,9.921,7.108,9.164,13.837S1620.964,462.866,1615,462.6a.787.787,0,0,1-.723-.776A84.444,84.444,0,0,1,1616.991,437.94Z"/><path class="i" d="M1621.6,456.553l-.369-.043a1.574,1.574,0,0,0-.535-1.3,1.9,1.9,0,0,1,.349-3.1,1.469,1.469,0,0,0,.275-2.459,1.9,1.9,0,0,1,.349-3.09,1.574,1.574,0,0,0,.81-1.151l.369.042a1.988,1.988,0,0,1-.972,1.455,1.468,1.468,0,0,0-.277,2.457,1.9,1.9,0,0,1-.348,3.093,1.469,1.469,0,0,0-.276,2.459A1.992,1.992,0,0,1,1621.6,456.553Z"/><path class="i" d="M1622.8,445.471l-.37-.043c.093-.81-.784-1.575-1.953-1.708l-2.52-.285.047-.414,2.52.285A2.267,2.267,0,0,1,1622.8,445.471Z"/><path class="i" d="M1618.854,458.126l-2.52-.282.048-.415,2.522.283c1.167.134,2.193-.421,2.285-1.231l.367.042A2.266,2.266,0,0,1,1618.854,458.126Z"/><path class="f" d="M1614.526,432.1s4.616,3.291,5.389,5.652c-3.482,2.991-7.217,17.434-2.856,24.837a13.528,13.528,0,0,1-7.525,4.167C1604.257,449.985,1609.981,436.614,1614.526,432.1Z"/><path class="w" d="M1545.347,568.941s5.527,5.933,5.913,8.409c-.361,2.18-3.3,14.3-7.8,22.522-2.18,2.055-10.013,1.59-10.013,1.59C1528.546,598.338,1539.155,567.347,1545.347,568.941Z"/><path class="x" d="M1543.459,599.872c4.5-8.221,7.44-20.342,7.8-22.522-.386-2.476-5.913-8.409-5.913-8.409,2.444,3,4.341,5.942,4.7,8.718,0,0-3.935,17.973-7.595,22.278l-.238.281.238-.281c-2.287,1.069-5.535,1.386-9.008,1.525C1533.446,601.462,1541.279,601.927,1543.459,599.872Z"/><path class="a" d="M1550.049,577.659s-7.868,7.148-7.595,22.278C1542.454,599.937,1549.691,587.652,1550.049,577.659Z"/><path class="q" d="M1566.68,676.57l-10.08,12-2.11-2.68-3.04-3.84,5.12-4.76-8.52-7.23-7.21,7.86-7.24-5.6,12.63-11.05,13.59,10.17Z"/><path class="g" d="M1561.04,672.53l-1.4-1.02-9.85-7.12a52.784,52.784,0,0,0-6.8-69.62,41.711,41.711,0,0,1,2.84-9.79,38.785,38.785,0,0,1,2.11-4.2,66.656,66.656,0,0,1,13.1,91.75Z"/><path class="y" d="M1561.04,672.53l-1.4-1.02c25.858-55.333-2.6-80.83-12.35-89.61.72-1.68,0,0,.65-1.12a66.656,66.656,0,0,1,13.1,91.75Z"/><path class="r" d="M1566.68,676.57l-10.08,12-2.11-2.68,7.12-10.97-1.97-3.41s.06-.02.18-.07Z"/><path class="c" d="M1508.73,668.46c1.23,2.08,6.49,10.04-3.28,16.93.2.02.41.03.61.03h.04c.23,0,.45-.01.68-.03h.04a6,6,0,0,0,.85-.12.426.426,0,0,0,.11-.02c.12-.02.23-.05.35-.08.22-.05.43-.11.64-.17.27-.1.54-.2.8-.31.14-.07.28-.13.42-.2s.27-.14.4-.22a8.669,8.669,0,0,0,4.34-7.41v-.1c0-.25-.01-.5-.03-.76a8.978,8.978,0,0,0-.27-1.48,3.371,3.371,0,0,0-.09-.34,8.491,8.491,0,0,0-1.5-2.8c0-.01,0-.02-.01-.02a1.928,1.928,0,0,0-.27-.3,1.393,1.393,0,0,0-.29-.31,6.788,6.788,0,0,0-.78-.73l-.21-.15c-.13-.1-.25-.19-.37-.28Z"/><path class="d" d="M1505.489,679.827a3.123,3.123,0,0,0,3.461-1.737,3.245,3.245,0,0,0,.231-.711A5.139,5.139,0,0,1,1505.489,679.827Z"/><path class="c" d="M1660.24,459.269c-6.678,58.083-62.933,86.355-121.015,79.677s-96-45.778-89.32-103.861a105.86,105.86,0,0,1,210.335,24.184Z"/><path class="z" d="M1661.234,459.383c-6.678,58.083-62.933,86.355-121.016,79.677s-96-45.778-89.319-103.86a105.86,105.86,0,1,1,210.335,24.183Z"/><path class="aa" d="M1536.017,358.252s-37.852,2.179-55.789,37.8"/><path class="r" d="M1606.726,354.316c1.038,1.254,2.047,2.58,3.035,3.955,26.258,20.025,36.472,57.2,31.685,98.837-4.844,42.125-30.431,69.178-64.93,78.474a90.225,90.225,0,0,1-17.828,4.425c51.052-.645,96.58-28.738,102.546-80.624A105.891,105.891,0,0,0,1606.726,354.316Z"/><path class="b" d="M1501.686,528.562s49.649,8.23,77.512,10.112c0,0,3.171.081.84,2.174-3.344,3-72.086-2.1-81.04-9C1495.069,528.82,1501.686,528.562,1501.686,528.562Z"/><path class="c" d="M1660.24,459.269c-6.678,58.083-62.933,86.355-121.015,79.677s-96-45.778-89.32-103.861a105.86,105.86,0,0,1,210.335,24.184Z"/><path class="z" d="M1661.234,459.383c-6.678,58.083-62.933,86.355-121.016,79.677s-96-45.778-89.319-103.86a105.86,105.86,0,1,1,210.335,24.183Z"/><path class="aa" d="M1536.017,358.252s-37.852,2.179-55.789,37.8"/><path class="r" d="M1606.726,354.316c1.038,1.254,2.047,2.58,3.035,3.955,26.258,20.025,36.472,57.2,31.685,98.837-4.844,42.125-30.431,69.178-64.93,78.474a90.225,90.225,0,0,1-17.828,4.425c51.052-.645,96.58-28.738,102.546-80.624A105.891,105.891,0,0,0,1606.726,354.316Z"/><path class="b" d="M1501.686,528.562s49.649,8.23,77.512,10.112c0,0,3.171.081.84,2.174-3.344,3-72.086-2.1-81.04-9C1495.069,528.82,1501.686,528.562,1501.686,528.562Z"/><path class="y" d="M1547.71,538.685s14.48,1.465,22.552,1.759c0,0,.916.008.286.418-.9.587-20.827-.226-23.547-1.536C1545.808,538.751,1547.71,538.685,1547.71,538.685Z"/><path class="y" d="M1575.193,540.073a17.774,17.774,0,0,0,3.745-.2s.147-.055.08.286c-.095.49-3.341,1.208-3.885.429A.333.333,0,0,1,1575.193,540.073Z"/></g></svg>